HIERARCHY
ROOT root
{
	OFFSET 0.000000 0.000000 0.000000
	CHANNELS 6 Xposition Yposition Zposition Zrotation Yrotation Xrotation
	JOINT lhip
	{
		OFFSET 0.058581 -0.082280 -0.017664
		CHANNELS 3 Zrotation Yrotation Xrotation
		JOINT lknee
		{
			OFFSET 0.043451 -0.386469 0.008037
			CHANNELS 3 Zrotation Yrotation Xrotation
			JOINT lankle
			{
				OFFSET -0.014790 -0.426874 -0.037428
				CHANNELS 3 Zrotation Yrotation Xrotation
				JOINT ltoe
				{
					OFFSET 0.041054 -0.060286 0.122042
					CHANNELS 3 Zrotation Yrotation Xrotation
					End Site
					{
						OFFSET 0.000000 0.000000 0.000000
					}
				}
			}
		}
	}
	JOINT rhip
	{
		OFFSET -0.060310 -0.090513 -0.013543
		CHANNELS 3 Zrotation Yrotation Xrotation
		JOINT rknee
		{
			OFFSET -0.043257 -0.383688 -0.004843
			CHANNELS 3 Zrotation Yrotation Xrotation
			JOINT rankle
			{
				OFFSET 0.019056 -0.420046 -0.034562
				CHANNELS 3 Zrotation Yrotation Xrotation
				JOINT rtoe
				{
					OFFSET -0.034840 -0.062106 0.130323
					CHANNELS 3 Zrotation Yrotation Xrotation
					End Site
					{
						OFFSET 0.000000 0.000000 0.000000
					}
				}
			}
		}
	}
	JOINT lowerback
	{
		OFFSET 0.004439 0.124404 -0.038385
		CHANNELS 3 Zrotation Yrotation Xrotation
		JOINT upperback
		{
			OFFSET 0.004488 0.137956 0.026820
			CHANNELS 3 Zrotation Yrotation Xrotation
			JOINT chest
			{
				OFFSET -0.002265 0.056032 0.002855
				CHANNELS 3 Zrotation Yrotation Xrotation
				JOINT lowerneck
				{
					OFFSET -0.013390 0.211636 -0.033468
					CHANNELS 3 Zrotation Yrotation Xrotation
					JOINT upperneck
					{
						OFFSET 0.010113 0.088937 0.050410
						CHANNELS 3 Zrotation Yrotation Xrotation
						End Site
						{
							OFFSET 0.000000 0.000000 0.000000
						}
					}
				}
				JOINT lclavicle
				{
					OFFSET 0.071702 0.114000 -0.018898
					CHANNELS 3 Zrotation Yrotation Xrotation
					JOINT lshoulder
					{
						OFFSET 0.122921 0.045205 -0.019046
						CHANNELS 3 Zrotation Yrotation Xrotation
						JOINT lelbow
						{
							OFFSET 0.255332 -0.015649 -0.022946
							CHANNELS 3 Zrotation Yrotation Xrotation
							JOINT lwrist
							{
								OFFSET 0.265709 0.012698 -0.007375
								CHANNELS 3 Zrotation Yrotation Xrotation
								End Site
								{
									OFFSET 0.000000 0.000000 0.000000
								}
							}
						}
					}
				}
				JOINT rclavicle
				{
					OFFSET -0.082954 0.112472 -0.023707
					CHANNELS 3 Zrotation Yrotation Xrotation
					JOINT rshoulder
					{
						OFFSET -0.113228 0.046853 -0.008472
						CHANNELS 3 Zrotation Yrotation Xrotation
						JOINT relbow
						{
							OFFSET -0.260127 -0.014369 -0.031269
							CHANNELS 3 Zrotation Yrotation Xrotation
							JOINT rwrist
							{
								OFFSET -0.269108 0.006794 -0.006027
								CHANNELS 3 Zrotation Yrotation Xrotation
								End Site
								{
									OFFSET 0.000000 0.000000 0.000000
								}
							}
						}
					}
				}
			}
		}
	}
}
MOTION
Frames: 14
Frame Time: 0.033333
-0.197196 0.055547 1.006174 166.934770 6.291160 84.737232 17.773974 2.196855 1.735638 -8.349633 0.055598 55.640665 -1.755279 9.358609 3.607181 0.000000 -0.000000 0.000000 8.797197 -0.592457 -9.408578 6.778087 -11.082326 16.813606 -3.797541 -8.885919 -11.957079 0.000000 -0.000000 0.000000 -4.724898 1.002561 11.160425 4.765731 -2.577399 0.616975 3.196476 -3.541374 -2.745503 12.645868 1.227168 -4.050281 9.778818 -1.314696 10.213301 -28.211927 -6.075045 3.063297 -49.388791 -10.222477 11.317900 3.945532 -26.769731 13.372930 -8.650790 -1.805897 2.035970 24.001925 2.279334 2.509771 50.852327 -2.959946 8.931062 -6.241288 17.681464 11.014579 15.548685 -0.481562 -5.353812 
-0.187007 0.076716 1.001329 166.572601 6.646700 84.257058 19.326982 3.238519 -4.981337 -5.766620 3.282129 62.147835 -0.909861 10.170095 -1.404730 0.000000 -0.000000 0.000000 9.393055 -2.062678 -6.301121 7.229086 -10.330259 15.463669 -3.597830 -7.729403 -13.195280 0.000000 -0.000000 0.000000 -4.061677 2.227578 13.038547 4.585604 -2.569701 -0.546842 3.103079 -2.979740 -2.649994 11.825127 0.508722 -4.255569 9.400041 -1.898890 10.029943 -28.772125 -6.474220 2.546009 -48.848424 -10.497135 10.443413 4.898061 -25.886825 11.634713 -4.169734 -3.020347 2.779619 24.282117 3.269969 2.338834 49.185661 -1.347312 8.733075 -5.224649 18.748692 10.693952 9.844223 0.597625 -4.987032 
-0.177968 0.098162 0.996873 166.184042 6.681815 83.831221 19.624676 3.988326 -11.447987 -4.215145 5.698023 65.464057 -0.604281 10.073499 -5.556416 0.000000 -0.000000 0.000000 9.303560 -3.720453 -3.292064 7.872493 -9.343757 14.202435 -2.966057 -6.427157 -14.263932 0.000000 -0.000000 0.000000 -3.672970 3.748361 14.697943 4.340589 -2.724469 -1.535518 3.080228 -2.434108 -2.750945 10.995855 0.164015 -3.916943 9.041751 -2.654745 9.615501 -28.941250 -6.736244 2.132468 -48.966032 -11.050385 9.657524 6.332647 -24.865149 9.618508 0.496336 -3.912978 2.410051 24.481250 4.422179 2.181213 47.827524 0.914953 8.404159 -4.782336 18.390019 10.359955 4.361119 1.054620 -4.522518 
-0.169416 0.118736 0.994116 165.940046 6.551297 83.624683 19.089556 4.273728 -17.906007 -3.476379 8.102321 65.859194 0.370064 10.499925 -8.053584 0.000000 -0.000000 0.000000 8.962064 -5.403452 -0.474901 8.468151 -7.955906 12.926007 -2.584919 -5.276060 -15.301494 0.000000 -0.000000 0.000000 -3.567947 5.226577 15.906964 4.155522 -3.098615 -2.718865 3.105035 -1.859224 -2.302011 10.143180 -0.083418 -3.622191 8.504287 -3.348040 9.032952 -28.557514 -6.748160 1.514700 -49.612317 -11.511903 9.134546 7.799483 -24.111702 7.860171 4.043380 -3.759928 1.059537 24.428094 5.625578 2.017163 47.145360 4.054684 8.041250 -5.010020 16.448071 9.604513 0.156210 0.988980 -2.985567 
-0.161537 0.139640 0.993346 165.802688 6.178137 83.819223 17.830739 4.065330 -24.130594 -3.266936 10.780361 63.280910 1.266512 10.891994 -10.253621 0.000000 -0.000000 0.000000 8.479229 -6.890941 1.832463 8.606177 -6.447910 11.900296 -2.335083 -4.479377 -16.432829 0.000000 -0.000000 0.000000 -3.631990 6.624838 16.361455 3.937246 -3.467175 -3.722460 3.015827 -1.469275 -1.805850 9.214389 -0.283910 -3.882916 7.691120 -4.172911 8.864019 -27.787259 -6.491860 0.814957 -50.399856 -11.634730 8.875322 9.080936 -23.864444 5.970456 5.321258 -2.708516 -0.915919 24.226613 6.779821 1.876689 46.974761 7.193784 8.082555 -5.746541 14.145107 8.736017 -0.897160 0.172510 -1.890793 
-0.154646 0.161796 0.993844 165.710274 5.516286 84.391668 15.910857 3.117339 -29.389213 -3.752323 12.947856 57.192946 2.019992 10.150227 -10.762576 0.000000 -0.000000 0.000000 7.821927 -7.707531 3.919230 8.400165 -5.243804 10.526898 -2.092475 -3.958181 -16.976971 0.000000 -0.000000 0.000000 -3.774883 7.919944 16.213549 3.604581 -3.799560 -4.244158 2.677923 -1.007516 -1.549860 8.383970 -0.396187 -4.543152 6.899573 -5.215794 8.474891 -26.937579 -6.228665 0.094513 -50.904063 -11.325254 9.044418 9.717447 -23.624848 5.094279 5.696907 -2.409208 -2.474974 23.818585 7.608719 1.702829 47.471134 9.804831 8.368215 -6.821742 12.913563 7.606682 -1.093154 -0.482421 -1.503041 
-0.149084 0.184916 0.994521 165.571434 4.791777 85.302183 13.635571 1.417468 -33.467419 -4.708119 13.412814 47.847097 2.773282 9.323082 -9.509592 0.000000 -0.000000 0.000000 7.380824 -7.756666 5.799527 7.894267 -3.934874 8.525546 -1.769931 -4.493805 -17.076006 0.000000 -0.000000 0.000000 -3.589320 8.959037 15.414781 3.059694 -3.906974 -4.521346 2.160213 -0.647579 -1.231970 8.064218 -1.184263 -6.919886 5.177064 -5.902544 9.108671 -26.671766 -5.957979 -0.133440 -50.653508 -10.983452 9.386466 10.044144 -23.365660 5.132796 4.915893 -2.859133 -3.272813 23.034675 8.206233 1.795473 48.417205 11.929761 9.253759 -7.808812 13.101238 6.205414 -0.468394 -0.370119 -2.165425 
-0.144279 0.209550 0.994581 165.476265 4.060638 86.368643 11.279231 -0.982269 -36.110075 -5.768001 11.263542 36.158126 2.997617 8.370961 -6.438997 0.000000 -0.000000 0.000000 6.799769 -7.779050 7.815018 7.494372 -2.698786 6.080998 -1.202206 -5.214439 -17.256684 0.000000 -0.000000 0.000000 -3.079692 9.761715 14.710203 2.196862 -4.002851 -4.860872 1.337146 -0.026948 -1.108326 7.280269 -2.212672 -8.868528 3.538465 -7.731287 8.608416 -26.313340 -5.187140 -0.741607 -50.127000 -10.389881 10.178887 9.654359 -23.318164 6.714979 4.453489 -3.420932 -2.836827 22.278774 8.233428 1.691054 49.435224 12.939438 10.429709 -7.843324 15.314228 5.819979 -0.581592 0.015840 -3.436886 
-0.139654 0.235266 0.993167 165.075466 3.341652 87.423586 9.151693 -3.166426 -37.654637 -6.077945 6.804831 25.062232 2.774620 6.131820 -1.667341 0.000000 -0.000000 0.000000 5.832704 -8.468704 9.944132 7.164867 -1.106764 3.843197 -1.063882 -5.570280 -17.479689 0.000000 -0.000000 0.000000 -2.508701 10.659143 13.400613 1.254789 -3.984398 -4.402783 0.439239 0.533765 -0.944479 6.076258 -3.092482 -11.032881 1.462724 -9.388962 8.292084 -26.304889 -4.392087 -1.320375 -49.148318 -9.782876 10.753601 9.438018 -23.669582 7.968824 3.614105 -3.796866 -2.445450 21.867581 8.458199 1.729551 50.108907 13.361867 11.767419 -8.203866 19.017459 5.865200 -0.346899 1.248044 -3.714241 
-0.134645 0.262714 0.990409 164.053151 2.651034 87.949406 7.360850 -4.182061 -38.507552 -5.427375 3.696275 18.955653 2.912853 4.392755 0.166087 0.000000 -0.000000 0.000000 4.637175 -9.352084 12.615134 6.999746 3.293872 2.017705 -1.239310 -8.122459 -17.282761 0.000000 -0.000000 0.000000 -1.478286 11.391679 12.797557 -0.239240 -3.338972 -4.279737 -0.403028 0.869759 -0.692447 5.050191 -4.828086 -14.239599 -1.159066 -10.253540 8.396908 -26.791679 -3.645226 -1.842089 -47.204147 -8.495740 9.703190 8.656719 -24.727442 8.790901 -0.646206 -2.743730 -1.581506 22.012998 9.241154 1.262329 50.198338 12.600894 13.827656 -8.730523 23.640488 3.007126 1.612555 1.629063 -0.955333 
-0.128796 0.292398 0.985552 162.874528 1.972838 87.904914 6.064129 -4.651423 -38.864356 -5.817328 3.061311 18.846456 4.415734 3.879286 -1.700740 0.000000 -0.000000 0.000000 2.915306 -9.374542 15.114996 6.976063 2.892566 2.419976 -1.164993 -6.439452 -18.994160 0.000000 -0.000000 0.000000 -1.162006 12.065823 12.411359 -1.434543 -3.344043 -2.068194 -1.619967 1.759017 -2.642776 2.737256 -2.885509 -6.200567 4.514055 -10.332560 0.210922 -24.830883 -2.969844 -1.955934 -47.849518 -6.296446 8.779187 9.183501 -26.110547 8.537457 -1.154786 -1.515862 -1.726518 22.463427 10.230986 1.699940 50.122893 11.977959 12.547844 -6.985310 27.967192 5.704638 2.085700 1.821784 -0.853359 
-0.123627 0.323490 0.979247 160.984549 1.377068 88.236084 5.546890 -5.856888 -38.468766 -5.689627 4.179263 20.707765 5.726498 3.265302 -1.791596 0.000000 -0.000000 0.000000 1.488779 -8.968101 16.516622 6.498356 3.862039 3.724922 -1.216952 -6.297256 -19.617525 0.000000 -0.000000 0.000000 -0.853425 12.567583 11.207469 -2.040216 -2.622988 -0.966938 -2.432275 2.371340 -3.052058 1.964104 -3.037054 -6.408591 3.535719 -9.617876 -0.924855 -25.505391 -1.974033 -1.837953 -47.198363 -4.877531 7.896910 10.078710 -25.546675 6.889712 -0.820061 -1.604599 -2.800370 22.817691 10.805687 2.339129 49.821049 12.817543 13.583547 -5.968522 30.296086 6.977493 1.946514 2.248896 -0.705489 
-0.118836 0.355447 0.972979 159.692775 0.637270 88.625916 5.016087 -6.727150 -38.838781 -4.916363 6.281340 23.799990 6.389754 3.261785 0.959244 0.000000 -0.000000 0.000000 0.580202 -7.884804 17.662490 5.508972 4.393939 5.191604 -1.270536 -6.888533 -19.616585 0.000000 -0.000000 0.000000 -1.114040 12.552880 10.272356 -2.248562 -2.193521 -0.645988 -2.930673 2.829678 -3.176497 1.311593 -2.964769 -6.498675 2.533816 -8.338445 -1.227032 -25.947485 -0.471899 -1.578051 -47.542179 -3.922131 7.182207 11.545416 -23.998236 5.059372 -0.723831 -1.572740 -3.931256 23.037059 11.084416 2.552451 50.115755 14.015855 15.312903 -4.952014 30.747294 8.378420 2.038837 2.529464 -0.181718 
-0.115380 0.387936 0.969412 158.993368 -0.275532 89.036153 4.279678 -6.748959 -39.285339 -5.540133 7.338433 26.999921 6.417229 4.588295 1.670254 0.000000 -0.000000 0.000000 -0.378250 -7.044566 17.810158 4.482842 4.303810 8.075263 -0.958474 -7.461771 -19.270998 0.000000 -0.000000 0.000000 -1.512594 12.160559 10.288960 -2.582659 -2.036892 -1.652149 -3.023362 3.044422 -3.289713 0.804303 -1.759557 -5.749645 2.228308 -6.990066 -0.190407 -26.207439 0.851018 -1.405716 -48.676441 -3.018382 5.841028 12.894894 -21.019537 2.834792 -0.147924 -0.774814 -5.256441 22.766405 10.861660 2.422165 51.576660 14.823683 17.101001 -3.927623 29.914849 10.244459 1.863816 2.362154 0.331913 
